<?xml version="1.0" encoding="utf-8"?>
<!-- Generator: Adobe Illustrator 23.0.0, SVG Export Plug-In . SVG Version: 6.00 Build 0)  -->
<svg version="1.1" id="图层_1" xmlns="http://www.w3.org/2000/svg" xmlns:xlink="http://www.w3.org/1999/xlink" x="0px" y="0px"
	 viewBox="0 0 638.3 301.8" style="enable-background:new 0 0 638.3 301.8;" xml:space="preserve">
<style type="text/css">
	.st0{fill:#FFFFFF;}
	.st1{fill:none;}
	.st2{clip-path:url(#SVGID_2_);}
	.st3{fill:#CECECE;}
	.st4{fill:#BABABA;}
	.st5{fill:#979797;}
</style>
<title>LOGO 1</title>
<rect y="15" width="638.3" height="275.9"/>
<path class="st0" d="M234.8,149.6l-21.1-9.2c-0.5-0.2-1.1,0-1.3,0.5c0,0,0,0,0,0l0,0l-9.5,21.9c-0.4,1,0,2.2,1,2.6
	c0.3,0.1,0.5,0.2,0.8,0.2h20.1c2.5,0,4.8-1.6,5.8-3.9l4.7-10.9C235.5,150.4,235.3,149.8,234.8,149.6z"/>
<path class="st0" d="M212.4,115.2c0.2,0.5,0.8,0.7,1.3,0.5l0,0l21.1-9.2c0.5-0.2,0.7-0.8,0.5-1.3l0,0l-4.7-10.9
	c-1-2.3-3.2-3.9-5.8-3.9h-20.1c-1.1,0-2,0.9-2,2c0,0.3,0.1,0.5,0.2,0.8L212.4,115.2z"/>
<path class="st0" d="M227.4,207.6h4v18.3c0,4.6,2,6.8,6.1,6.8s6.9-2.3,7-6.7v-18.3h4v28h-3.1l-0.8-2.9h-0.2c-0.8,1.1-3.3,3.5-8,3.5
	c-5.8,0-8.9-3-9.1-9.4L227.4,207.6z"/>
<path class="st0" d="M257.1,196.6h4v13h0.2c2-1.5,4.3-2.2,6.8-2.2c5.9,0,10.6,3.8,10.6,13.4c0,9.1-4.5,15.4-13.7,15.4
	c-2.7,0.1-5.4-0.4-7.9-1.5L257.1,196.6z M274.6,221.3c0-8.1-3.8-10.4-7.7-10.4c-2.3,0-4.4,1-5.9,2.8v18.2c1.4,0.5,2.9,0.8,4.5,0.8
	C271,232.6,274.7,228.9,274.6,221.3L274.6,221.3z"/>
<path class="st0" d="M348,215.7v12.7c0,2.5,0.8,4.2,2.7,4.2h0.7v2.9c-0.4,0.2-0.9,0.3-1.4,0.3c-2.3,0.2-4.4-1.2-5.1-3.4h-0.2
	c-2,2.5-5.1,3.9-8.3,3.8c-5.2,0-8.1-3.6-8.1-7.5c0-6.2,6.1-9.2,16-9v-3c0-4.6-2.2-5.9-5.9-5.9c-2.6-0.1-5,1.2-6.4,3.4l-2.9-2.3
	c2.2-3,5.7-4.7,9.4-4.6C344.4,207.2,348,209.8,348,215.7z M344.3,222.8c-6.7-0.3-12,1.4-12,5.6c0,2.5,1.8,4.5,5,4.5
	c2.8,0,5.4-1.5,7-3.8V222.8z"/>
<path class="st0" d="M379.5,196.5c1.6,0,2.9,1.3,2.9,2.9c0,1.6-1.3,2.9-2.9,2.9c-1.6,0-2.9-1.3-2.9-2.9c0,0,0,0,0,0
	C376.6,197.8,377.9,196.5,379.5,196.5z M377.7,207.6h4v28h-4V207.6z"/>
<path class="st0" d="M440.3,233.4c-2.6,1.8-5.7,2.6-8.8,2.5c-8,0-12.3-4.1-12.3-14.5c0-10.1,5.6-14.3,11.9-14.3
	c6.6,0,10.2,4.3,10.2,10.9c0,1.6-0.1,3.2-0.3,4.8h-17.7c0.4,6.9,3.2,9.5,8.8,9.5c2.3,0,4.6-0.7,6.5-2.1L440.3,233.4z M423.3,219.6
	h14c0-0.6,0-1.2,0-1.6c0-4.8-2-7.5-6.6-7.5C427.1,210.6,423.6,212.9,423.3,219.6z"/>
<path class="st0" d="M312.8,207c-4.4,0-7.1,2.2-8.2,4.4h-0.2c-1-2.5-3.2-4.4-7.4-4.4c-2.9-0.2-5.6,1.2-7.3,3.5h-0.1v-3h-4v28h4v-20
	c0.7-2.9,3.3-5,6.3-5c3.6,0,5.5,2.4,5.5,6.8v18.1h4v-20.3c0.9-2.8,3.5-4.7,6.4-4.7c3.4,0,5.5,2.2,5.5,6.5v18.5h4v-19.2
	C321.5,210.2,318.4,207,312.8,207z"/>
<path class="st0" d="M403.3,207c-3,0-6,1.2-8,3.5l0,0v-2.9h-4v28h4v-20c1.1-3,3.9-5,7.1-5c3.9,0,6,2.4,6,6.6v18.3h4v-19.2
	C412.2,210.1,408.9,207,403.3,207z"/>
<path class="st0" d="M357.8,207.9h3.9l0.4,5h0.2c1.9-3.5,4.7-5.7,7.9-5.7c1,0,2.1,0.2,3,0.6l-0.9,4.1c-0.9-0.3-1.8-0.5-2.7-0.5
	c-2.3,0-5.1,1.7-7,6.4v17.8h-4.7L357.8,207.9z"/>
<path class="st0" d="M203.6,208.4c0-3.3,2.5-5.6,6.7-5.6c2.6,0,5,0.8,7,2.5l2.5-3.2c-2.7-2-5.9-3.1-9.3-3c-6.5,0-11.1,4.2-11.1,9.7
	c0,11.4,17.2,9.5,17.2,17.7c0,3.3-2.6,6-7.5,6h-21.2c-0.9,1.1-1.7,2.4-2.3,3.7h23.2c7.7,0,12-4.5,12-10
	C220.7,215,203.6,216.7,203.6,208.4z"/>
<path class="st0" d="M404.6,78.1h-59.2c-16.1,0-32.1,3.3-47,9.6l0,0l-89,38.7c-1,0.5-1.3,1.7-0.8,2.7c0,0,0,0,0,0
	c0.2,0.3,0.5,0.6,0.8,0.8l103.3,44.8c5.8,2.2,11.9,3.4,18.1,3.4h27.3c9.7,0,17.9-6.9,19.7-16.4l0,0c1.8-10,8.3-18.6,17.6-22.9l0,0
	l5.2-2c12.4-4.6,22.4-11.8,27.2-23.3l0.4-1c5-13-1.5-27.7-14.6-32.7C410.8,78.7,407.8,78.1,404.6,78.1L404.6,78.1z"/>
<path class="st1" d="M404.6,78.1h-59.2c-16.1,0-32.1,3.3-47,9.6l0,0l-89,38.7c-1,0.5-1.3,1.7-0.8,2.7c0,0,0,0,0,0
	c0.2,0.3,0.5,0.6,0.8,0.8L310,173.5l2.7,1.1c5.8,2.2,11.9,3.4,18.1,3.4h27.3c9.7,0,17.9-6.9,19.7-16.4l0,0
	c1.8-10,8.3-18.6,17.6-22.9l0,0l5.2-2c12.4-4.6,22.4-11.8,27.2-23.3l0.4-1c5-13-1.5-27.7-14.6-32.7
	C410.8,78.7,407.8,78.1,404.6,78.1L404.6,78.1z"/>
<path class="st1" d="M404.6,78.1h-59.2c-16.1,0-32.1,3.3-47,9.6l0,0l-89,38.7c-1,0.5-1.3,1.7-0.8,2.7c0,0,0,0,0,0
	c0.2,0.3,0.5,0.6,0.8,0.8L310,173.5l2.7,1.1c5.8,2.2,11.9,3.4,18.1,3.4h27.3c9.7,0,17.9-6.9,19.7-16.4l0,0
	c1.8-10,8.3-18.6,17.6-22.9l0,0l5.2-2c12.4-4.6,22.4-11.8,27.2-23.3l0.4-1c5-13-1.5-27.7-14.6-32.7
	C410.8,78.7,407.8,78.1,404.6,78.1L404.6,78.1z"/>
<g>
	<defs>
		<path id="SVGID_1_" d="M404.6,78.1h-59.2c-16.1,0-32.1,3.3-47,9.6l0,0l-89,38.7c-1,0.5-1.3,1.7-0.8,2.7c0,0,0,0,0,0
			c0.2,0.3,0.5,0.6,0.8,0.8l103.3,44.8c5.8,2.2,11.9,3.4,18.1,3.4h27.3c9.7,0,17.9-6.9,19.7-16.4l0,0c1.8-10,8.3-18.6,17.6-22.9l0,0
			l5.2-2c12.4-4.6,22.4-11.8,27.2-23.3l0.4-1c5-13-1.5-27.7-14.6-32.7C410.8,78.7,407.8,78.1,404.6,78.1L404.6,78.1z"/>
	</defs>
	<clipPath id="SVGID_2_">
		<use xlink:href="#SVGID_1_"  style="overflow:visible;"/>
	</clipPath>
	<g class="st2">
		<path class="st3" d="M466,77.1H343.6c-66.2,1.3-118.8,56.1-117.4,122.3s56.1,118.8,122.3,117.4s118.8-56.1,117.4-122.3
			c-0.2-9.9-1.6-19.8-4.3-29.4h4.3L466,77.1z"/>
		<path class="st4" d="M445.9,97.4V78.1h-54.4c-47.7,0-86.4,38.7-86.5,86.4c0,47.7,38.7,86.4,86.4,86.5c47.7,0,86.4-38.7,86.5-86.4
			C477.9,138.5,466.2,113.8,445.9,97.4z"/>
		<path class="st1" d="M404.6,78.1h-59.2c-16.1,0-32.1,3.3-47,9.6l0,0l-89,38.7c-1,0.5-1.3,1.7-0.8,2.7c0,0,0,0,0,0
			c0.2,0.3,0.5,0.6,0.8,0.8L310,173.5l2.7,1.1c5.8,2.2,11.9,3.4,18.1,3.4h27.3c9.7,0,17.9-6.9,19.7-16.4l0,0
			c1.8-10,8.3-18.6,17.6-22.9l0,0l5.2-2c12.4-4.6,22.4-11.8,27.2-23.3l0.4-1c5-13-1.5-27.7-14.6-32.7
			C410.8,78.7,407.8,78.1,404.6,78.1L404.6,78.1z"/>
		<path class="st5" d="M410.5,132.2c-4,2.2-8.4,3.4-12.9,3.6l0,0c-25.5,1.5-47.5,18.2-55.8,42.3h1.7c-11.5,33,5.9,69.1,38.9,80.6
			s69.1-5.9,80.6-38.9c2.3-6.7,3.5-13.8,3.5-20.9C466.5,164,408.1,133.6,410.5,132.2z"/>
		<path class="st1" d="M404.6,78.1h-59.2c-16.1,0-32.1,3.3-47,9.6l0,0l-89,38.7c-1,0.5-1.3,1.7-0.8,2.7c0,0,0,0,0,0
			c0.2,0.3,0.5,0.6,0.8,0.8L310,173.5l2.7,1.1c5.8,2.2,11.9,3.4,18.1,3.4h27.3c9.7,0,17.9-6.9,19.7-16.4l0,0
			c1.8-10,8.3-18.6,17.6-22.9l0,0l5.2-2c12.4-4.6,22.4-11.8,27.2-23.3l0.4-1c5-13-1.5-27.7-14.6-32.7
			C410.8,78.7,407.8,78.1,404.6,78.1L404.6,78.1z"/>
	</g>
</g>
</svg>
