<?xml version="1.0" encoding="utf-8"?>
<!-- Generator: Adobe Illustrator 23.0.0, SVG Export Plug-In . SVG Version: 6.00 Build 0)  -->
<svg version="1.1" id="图层_1" xmlns="http://www.w3.org/2000/svg" xmlns:xlink="http://www.w3.org/1999/xlink" x="0px" y="0px"
	 viewBox="0 0 292.4 239.7" style="enable-background:new 0 0 292.4 239.7;" xml:space="preserve">
<style type="text/css">
	.st0{fill:#1D1D1D;}
	.st1{fill:none;}
	.st2{clip-path:url(#SVGID_2_);}
	.st3{fill:#313131;}
	.st4{fill:#454545;}
	.st5{fill:#686868;}
</style>
<title>LOGO 2</title>
<path class="st0" d="M67.6,112.3l-21.1-9.2c-0.5-0.2-1.1,0-1.3,0.5c0,0,0,0,0,0l0,0l-9.5,21.9c-0.4,1,0,2.2,1,2.6
	c0.3,0.1,0.5,0.2,0.8,0.2h20.1c2.5,0,4.8-1.6,5.8-3.9l4.7-10.9C68.3,113.1,68.1,112.6,67.6,112.3C67.6,112.3,67.6,112.3,67.6,112.3
	L67.6,112.3z"/>
<path class="st0" d="M45.2,77.9c0.2,0.5,0.8,0.7,1.3,0.5l0,0l21.1-9.2c0.5-0.2,0.7-0.8,0.5-1.3l0,0l-4.7-10.9
	c-1-2.3-3.2-3.9-5.8-3.9H37.5c-1.1,0-2,0.9-2,2c0,0.3,0.1,0.5,0.2,0.8L45.2,77.9z"/>
<path class="st0" d="M60.2,170.3h4v18.3c0,4.6,2,6.8,6.1,6.8s6.9-2.3,7-6.7v-18.3h4v28h-3.1l-0.8-2.9h-0.2c-0.8,1.1-3.3,3.5-8,3.5
	c-5.8,0-8.9-3-9.1-9.4L60.2,170.3z"/>
<path class="st0" d="M89.9,159.3h4v13h0.2c2-1.5,4.3-2.2,6.8-2.2c5.9,0,10.6,3.8,10.6,13.4c0,9.1-4.5,15.4-13.7,15.4
	c-2.7,0.1-5.4-0.4-7.9-1.5L89.9,159.3z M107.5,184c0-8.1-3.8-10.4-7.7-10.4c-2.3,0-4.4,1-5.9,2.8v18.2c1.4,0.5,2.9,0.8,4.5,0.8
	C103.8,195.3,107.5,191.6,107.5,184z"/>
<path class="st0" d="M180.8,178.4V191c0,2.5,0.8,4.2,2.7,4.2h0.7v2.9c-0.4,0.2-0.9,0.3-1.4,0.3c-2.3,0.2-4.4-1.2-5.1-3.4h-0.2
	c-2,2.5-5.1,3.9-8.3,3.8c-5.2,0-8.1-3.6-8.1-7.5c0-6.2,6.1-9.2,16-9v-3c0-4.6-2.2-5.9-5.9-5.9c-2.6-0.1-5,1.2-6.4,3.4l-2.9-2.3
	c2.2-3,5.7-4.7,9.4-4.6C177.2,169.9,180.8,172.5,180.8,178.4z M177.1,185.5c-6.7-0.3-12,1.4-12,5.6c0,2.5,1.8,4.5,5,4.5
	c2.8,0,5.4-1.5,7-3.8V185.5z"/>
<path class="st0" d="M212.3,159.2c1.6,0,2.9,1.3,2.9,2.9c0,1.6-1.3,2.9-2.9,2.9s-2.9-1.3-2.9-2.9c0,0,0,0,0,0
	C209.4,160.5,210.7,159.2,212.3,159.2z M210.5,170.3h4v28h-4V170.3z"/>
<path class="st0" d="M273.1,196.1c-2.6,1.8-5.7,2.6-8.8,2.5c-8,0-12.3-4.1-12.3-14.5c0-10.1,5.6-14.3,11.9-14.3
	c6.6,0,10.2,4.3,10.2,10.9c0,1.6-0.1,3.2-0.3,4.8H256c0.4,6.9,3.2,9.5,8.8,9.5c2.3,0,4.6-0.7,6.5-2.1L273.1,196.1z M256.1,182.4h14
	c0-0.6,0-1.2,0-1.6c0-4.8-2-7.5-6.6-7.5C259.9,173.3,256.4,175.6,256.1,182.4z"/>
<path class="st0" d="M145.6,169.8c-4.4,0-7.1,2.2-8.2,4.4h-0.2c-1-2.5-3.2-4.4-7.4-4.4c-2.9-0.2-5.6,1.2-7.3,3.5h-0.1v-3h-4v28h4
	v-20c0.7-2.9,3.3-5,6.3-5c3.6,0,5.5,2.4,5.5,6.8v18.1h4V178c0.9-2.8,3.5-4.7,6.4-4.7c3.4,0,5.5,2.2,5.5,6.5v18.5h4V179
	C154.3,172.9,151.2,169.8,145.6,169.8z"/>
<path class="st0" d="M236.1,169.8c-3,0-6,1.2-8,3.5l0,0v-2.9h-4v28h4v-20c1.1-3,3.9-5,7.1-5c3.9,0,6,2.4,6,6.6v18.3h4V179
	C245,172.8,241.7,169.8,236.1,169.8z"/>
<path class="st0" d="M190.6,170.7h3.9l0.4,5h0.2c1.9-3.5,4.7-5.7,7.9-5.7c1,0,2.1,0.2,3,0.6l-0.9,4.1c-0.9-0.3-1.8-0.5-2.7-0.5
	c-2.3,0-5.1,1.7-7,6.4v17.8h-4.7L190.6,170.7z"/>
<path class="st0" d="M36.4,171.1c0-3.3,2.5-5.6,6.7-5.6c2.6,0,5,0.8,7,2.5l2.5-3.2c-2.7-2-5.9-3.1-9.3-3c-6.5,0-11.1,4.2-11.1,9.7
	c0,11.4,17.2,9.5,17.2,17.7c0,3.3-2.6,6-7.5,6H20.7c-0.9,1.1-1.7,2.4-2.3,3.7h23.2c7.7,0,12-4.5,12-10
	C53.5,177.7,36.4,179.5,36.4,171.1z"/>
<path class="st0" d="M237.4,40.8h-59.2c-16.1,0-32.1,3.3-47,9.6l0,0L42.2,89c-1,0.5-1.3,1.7-0.8,2.7c0,0,0,0,0,0
	c0.2,0.3,0.5,0.6,0.8,0.8l103.3,44.8c5.8,2.2,11.9,3.4,18.1,3.4H191c9.7,0,17.9-6.9,19.7-16.4l0,0c1.8-10,8.3-18.6,17.6-22.9l0,0
	l5.2-2c12.4-4.6,22.4-11.8,27.2-23.3l0.4-1c5-13-1.5-27.7-14.6-32.7C243.6,41.4,240.6,40.8,237.4,40.8L237.4,40.8z"/>
<path class="st1" d="M237.4,40.8h-59.2c-16.1,0-32.1,3.3-47,9.6l0,0L42.2,89c-1,0.5-1.3,1.7-0.8,2.7c0,0,0,0,0,0
	c0.2,0.3,0.5,0.6,0.8,0.8l100.6,43.7l2.7,1.1c5.8,2.2,11.9,3.4,18.1,3.4H191c9.7,0,17.9-6.9,19.7-16.4l0,0
	c1.8-10,8.3-18.6,17.6-22.9l0,0l5.2-2c12.4-4.6,22.4-11.8,27.2-23.3l0.4-1c5-13-1.5-27.7-14.6-32.7
	C243.6,41.4,240.6,40.8,237.4,40.8L237.4,40.8z"/>
<path class="st1" d="M237.4,40.8h-59.2c-16.1,0-32.1,3.3-47,9.6l0,0L42.2,89c-1,0.5-1.3,1.7-0.8,2.7c0,0,0,0,0,0
	c0.2,0.3,0.5,0.6,0.8,0.8l100.6,43.7l2.7,1.1c5.8,2.2,11.9,3.4,18.1,3.4H191c9.7,0,17.9-6.9,19.7-16.4l0,0
	c1.8-10,8.3-18.6,17.6-22.9l0,0l5.2-2c12.4-4.6,22.4-11.8,27.2-23.3l0.4-1c5-13-1.5-27.7-14.6-32.7
	C243.6,41.4,240.6,40.8,237.4,40.8L237.4,40.8z"/>
<g>
	<defs>
		<path id="SVGID_1_" d="M237.4,40.8h-59.2c-16.1,0-32.1,3.3-47,9.6l0,0L42.2,89c-1,0.5-1.3,1.7-0.8,2.7c0,0,0,0,0,0
			c0.2,0.3,0.5,0.6,0.8,0.8l103.3,44.8c5.8,2.2,11.9,3.4,18.1,3.4H191c9.7,0,17.9-6.9,19.7-16.4l0,0c1.8-10,8.3-18.6,17.6-22.9l0,0
			l5.2-2c12.4-4.6,22.4-11.8,27.2-23.3l0.4-1c5-13-1.5-27.7-14.6-32.7C243.6,41.4,240.6,40.8,237.4,40.8L237.4,40.8z"/>
	</defs>
	<clipPath id="SVGID_2_">
		<use xlink:href="#SVGID_1_"  style="overflow:visible;"/>
	</clipPath>
	<g class="st2">
		<path class="st3" d="M298.8,39.8H176.5C110.3,41.1,57.7,95.9,59,162c1.3,66.2,56.1,118.8,122.3,117.4
			c66.2-1.3,118.8-56.1,117.4-122.3c-0.2-9.9-1.6-19.8-4.3-29.4h4.3L298.8,39.8z"/>
		<path class="st4" d="M278.8,60.1V40.8h-54.4c-47.7,0-86.4,38.7-86.5,86.4c0,47.7,38.7,86.4,86.4,86.5c47.7,0,86.4-38.7,86.5-86.4
			C310.7,101.2,299,76.6,278.8,60.1L278.8,60.1z"/>
		<path class="st1" d="M237.4,40.8h-59.2c-16.1,0-32.1,3.3-47,9.6l0,0L42.2,89c-1,0.5-1.3,1.7-0.8,2.7c0,0,0,0,0,0
			c0.2,0.3,0.5,0.6,0.8,0.8l100.6,43.7l2.7,1.1c5.8,2.2,11.9,3.4,18.1,3.4H191c9.7,0,17.9-6.9,19.7-16.4l0,0
			c1.8-10,8.3-18.6,17.6-22.9l0,0l5.2-2c12.4-4.6,22.4-11.8,27.2-23.3l0.4-1c5-13-1.5-27.7-14.6-32.7
			C243.6,41.4,240.6,40.8,237.4,40.8L237.4,40.8z"/>
		<path class="st5" d="M243.3,94.9c-4,2.2-8.4,3.4-12.9,3.6l0,0c-25.5,1.5-47.5,18.2-55.8,42.3h1.7c-11.5,33,5.9,69.1,38.9,80.6
			s69.1-5.9,80.6-38.9c2.3-6.7,3.5-13.8,3.5-20.9C299.3,126.7,240.9,96.3,243.3,94.9z"/>
		<path class="st1" d="M237.4,40.8h-59.2c-16.1,0-32.1,3.3-47,9.6l0,0L42.2,89c-1,0.5-1.3,1.7-0.8,2.7c0,0,0,0,0,0
			c0.2,0.3,0.5,0.6,0.8,0.8l100.6,43.7l2.7,1.1c5.8,2.2,11.9,3.4,18.1,3.4H191c9.7,0,17.9-6.9,19.7-16.4l0,0
			c1.8-10,8.3-18.6,17.6-22.9l0,0l5.2-2c12.4-4.6,22.4-11.8,27.2-23.3l0.4-1c5-13-1.5-27.7-14.6-32.7
			C243.6,41.4,240.6,40.8,237.4,40.8L237.4,40.8z"/>
	</g>
</g>
</svg>
