<svg id="图层_1" data-name="图层 1" xmlns="http://www.w3.org/2000/svg" xmlns:xlink="http://www.w3.org/1999/xlink" viewBox="0 0 638.26 796.53"><defs><style>.cls-1{fill:none;}.cls-2{fill:#2e51bf;}.cls-3{fill:#3cddc9;}.cls-4{clip-path:url(#clip-path);}.cls-5{fill:#3090d8;}.cls-6{fill:#3fbfde;}.cls-7{fill:#1d1d1d;}.cls-8{clip-path:url(#clip-path-2);}.cls-9{fill:#313131;}.cls-10{fill:#454545;}.cls-11{fill:#686868;}.cls-12{fill:#fff;}.cls-13{clip-path:url(#clip-path-3);}.cls-14{fill:#cecece;}.cls-15{fill:#bababa;}.cls-16{fill:#979797;}</style><clipPath id="clip-path"><path class="cls-1" d="M413.18,66.76H354a121.42,121.42,0,0,0-47,9.58h0L218,115a2,2,0,0,0,0,3.53l103.26,44.79a52,52,0,0,0,18.15,3.44H366.7a20,20,0,0,0,19.67-16.44h0a31.32,31.32,0,0,1,17.58-22.91h0l5.24-2c12.41-4.58,22.37-11.82,27.22-23.25l.4-1a25.31,25.31,0,0,0-23.63-34.38Z"/></clipPath><clipPath id="clip-path-2"><path class="cls-1" d="M403.33,305.77H344.16a121.42,121.42,0,0,0-47,9.58h0L208.13,354a2,2,0,0,0,0,3.53l103.26,44.79a52,52,0,0,0,18.15,3.44h27.32a20,20,0,0,0,19.67-16.44h0a31.32,31.32,0,0,1,17.58-22.91h0l5.24-2c12.41-4.58,22.37-11.82,27.22-23.25l.4-1a25.31,25.31,0,0,0-23.63-34.38Z"/></clipPath><clipPath id="clip-path-3"><path class="cls-1" d="M403.33,583.75H344.16a121.42,121.42,0,0,0-47,9.58h0L208.13,632a2,2,0,0,0,0,3.53l103.26,44.79a52,52,0,0,0,18.15,3.44h27.32a20,20,0,0,0,19.67-16.44h0a31.32,31.32,0,0,1,17.58-22.91h0l5.24-2c12.41-4.58,22.37-11.82,27.22-23.25l.4-1a25.31,25.31,0,0,0-23.63-34.38Z"/></clipPath></defs><title>logo</title><rect x="-1.28" y="520.68" width="638.26" height="275.85"/><path class="cls-2" d="M243.33,138.29l-21.09-9.17a1,1,0,0,0-1.32.52l-9.53,21.92a2,2,0,0,0,1.83,2.8h20.13a6.33,6.33,0,0,0,5.77-3.88l4.73-10.87A1,1,0,0,0,243.33,138.29Z"/><path class="cls-2" d="M220.92,103.89a1,1,0,0,0,1.32.52l21.09-9.17a1,1,0,0,0,.52-1.32L239.12,83a6.33,6.33,0,0,0-5.77-3.88H213.22a2,2,0,0,0-1.83,2.8Z"/><path class="cls-3" d="M235.94,196.28h4v18.29c0,4.57,2,6.78,6.11,6.78,4,0,6.94-2.31,7-6.73V196.28h4v28H254l-.77-2.93H253c-.77,1.08-3.29,3.49-8,3.49-5.76,0-8.94-3-9.1-9.4Z"/><path class="cls-3" d="M265.65,185.24h4v12.95h.21a11.06,11.06,0,0,1,6.78-2.16c5.86,0,10.64,3.8,10.64,13.36,0,9.09-4.47,15.36-13.72,15.36a17.71,17.71,0,0,1-7.86-1.49ZM283.22,210c0-8.12-3.8-10.43-7.71-10.43a7.46,7.46,0,0,0-5.86,2.77v18.19a12,12,0,0,0,4.47.77C279.57,221.26,283.22,217.51,283.22,210Z"/><path class="cls-3" d="M356.55,204.35V217c0,2.52.77,4.21,2.72,4.21H360v2.93a3.13,3.13,0,0,1-1.44.31,5,5,0,0,1-5.09-3.39h-.21a10.09,10.09,0,0,1-8.32,3.75c-5.19,0-8.07-3.65-8.07-7.45,0-6.17,6.06-9.2,16-9v-3c0-4.57-2.21-5.91-5.91-5.91a7,7,0,0,0-6.37,3.39l-2.93-2.31a10.91,10.91,0,0,1,9.4-4.57C353,195.87,356.55,198.49,356.55,204.35Zm-3.7,7.09c-6.73-.26-12,1.39-12,5.6,0,2.47,1.8,4.47,5,4.47a8.63,8.63,0,0,0,7-3.8Z"/><path class="cls-3" d="M388.05,185.19a2.9,2.9,0,1,1,0,5.81,2.9,2.9,0,0,1,0-5.81Zm-1.75,11.1h4v28h-4Z"/><path class="cls-3" d="M448.89,222.08a14.54,14.54,0,0,1-8.79,2.52c-8,0-12.28-4.06-12.28-14.49,0-10.12,5.65-14.28,11.87-14.28,6.63,0,10.17,4.32,10.17,10.94a43.49,43.49,0,0,1-.31,4.83H431.78c.36,6.89,3.24,9.51,8.84,9.51a10.61,10.61,0,0,0,6.47-2.11Zm-17.06-13.77h14c.05-.62.05-1.23.05-1.59,0-4.78-2.05-7.45-6.58-7.45C435.69,199.26,432.19,201.58,431.83,208.31Z"/><path class="cls-3" d="M321.4,195.72c-4.37,0-7.09,2.16-8.17,4.42H313c-1-2.52-3.24-4.42-7.4-4.42a8.25,8.25,0,0,0-7.25,3.55h-.1v-3h-4v28h4v-20a6.49,6.49,0,0,1,6.32-5c3.6,0,5.55,2.42,5.55,6.83v18.14h4v-20.3a6.69,6.69,0,0,1,6.42-4.68c3.44,0,5.5,2.21,5.5,6.53v18.45h4V205C330,198.85,326.95,195.72,321.4,195.72Z"/><path class="cls-3" d="M411.84,195.72a10.6,10.6,0,0,0-8,3.49h-.05v-2.93h-4v28h4v-20a7.54,7.54,0,0,1,7.09-5c3.9,0,6,2.36,6,6.63v18.34h4V205C420.78,198.75,417.44,195.72,411.84,195.72Z"/><path class="cls-3" d="M366.4,196.63h3.88l.4,5h.17c1.88-3.48,4.74-5.71,7.88-5.71a6.88,6.88,0,0,1,3,.57l-.91,4.11a7.76,7.76,0,0,0-2.68-.46c-2.34,0-5.14,1.71-7,6.39v17.81H366.4Z"/><path class="cls-3" d="M212.15,197.11c0-3.29,2.52-5.65,6.73-5.65a10.79,10.79,0,0,1,7,2.47l2.52-3.19a14.55,14.55,0,0,0-9.3-3c-6.47,0-11.15,4.21-11.15,9.66,0,11.36,17.16,9.51,17.16,17.68,0,3.33-2.61,6-7.48,6h-21.2a20,20,0,0,0-2.34,3.69h23.16c7.71,0,12-4.52,12-10C229.31,203.68,212.15,205.43,212.15,197.11Z"/><path class="cls-2" d="M413.18,66.76H354a121.42,121.42,0,0,0-47,9.58h0L218,115a2,2,0,0,0,0,3.53l103.26,44.79a52,52,0,0,0,18.15,3.44H366.7a20,20,0,0,0,19.67-16.44h0a31.32,31.32,0,0,1,17.58-22.91h0l5.24-2c12.41-4.58,22.37-11.82,27.22-23.25l.4-1a25.31,25.31,0,0,0-23.63-34.38Z"/><path class="cls-1" d="M413.18,66.76H354a121.42,121.42,0,0,0-47,9.58h0L218,115a2,2,0,0,0,0,3.53l100.59,43.65,2.67,1.14a52,52,0,0,0,18.15,3.44H366.7a20,20,0,0,0,19.67-16.44h0a31.32,31.32,0,0,1,17.58-22.91h0l5.24-2c12.41-4.58,22.37-11.82,27.22-23.25l.4-1a25.31,25.31,0,0,0-23.63-34.38Z"/><path class="cls-1" d="M413.18,66.76H354a121.42,121.42,0,0,0-47,9.58h0L218,115a2,2,0,0,0,0,3.53l100.59,43.65,2.67,1.14a52,52,0,0,0,18.15,3.44H366.7a20,20,0,0,0,19.67-16.44h0a31.32,31.32,0,0,1,17.58-22.91h0l5.24-2c12.41-4.58,22.37-11.82,27.22-23.25l.4-1a25.31,25.31,0,0,0-23.63-34.38Z"/><g class="cls-4"><path class="cls-5" d="M474.56,65.74H352.22v0a119.86,119.86,0,1,0,118,88.08h4.28Z"/><path class="cls-6" d="M454.52,86.09V66.76H400.07a86.42,86.42,0,1,0,54.45,19.33Z"/><path class="cls-1" d="M413.18,66.76H354a121.42,121.42,0,0,0-47,9.58h0L218,115a2,2,0,0,0,0,3.53l100.59,43.65,2.67,1.14a52,52,0,0,0,18.15,3.44H366.7a20,20,0,0,0,19.67-16.44h0a31.32,31.32,0,0,1,17.58-22.91h0l5.24-2c12.41-4.58,22.37-11.82,27.22-23.25l.4-1a25.31,25.31,0,0,0-23.63-34.38Z"/><path class="cls-3" d="M419,120.85a28.73,28.73,0,0,1-12.9,3.61h0a62.88,62.88,0,0,0-55.84,42.3H352A63.3,63.3,0,1,0,475,187.64C475,152.68,416.64,122.3,419,120.85Z"/><path class="cls-1" d="M413.18,66.76H354a121.42,121.42,0,0,0-47,9.58h0L218,115a2,2,0,0,0,0,3.53l100.59,43.65,2.67,1.14a52,52,0,0,0,18.15,3.44H366.7a20,20,0,0,0,19.67-16.44h0a31.32,31.32,0,0,1,17.58-22.91h0l5.24-2c12.41-4.58,22.37-11.82,27.22-23.25l.4-1a25.31,25.31,0,0,0-23.63-34.38Z"/></g><path class="cls-7" d="M233.48,377.29l-21.09-9.17a1,1,0,0,0-1.32.52l-9.53,21.92a2,2,0,0,0,1.83,2.8H223.5a6.33,6.33,0,0,0,5.77-3.88L234,378.61A1,1,0,0,0,233.48,377.29Z"/><path class="cls-7" d="M211.07,342.89a1,1,0,0,0,1.32.52l21.09-9.17a1,1,0,0,0,.52-1.32l-4.73-10.87a6.33,6.33,0,0,0-5.77-3.88H203.37a2,2,0,0,0-1.83,2.8Z"/><path class="cls-7" d="M226.09,435.29h4v18.29c0,4.57,2,6.78,6.11,6.78,4,0,6.94-2.31,7-6.73V435.29h4v28h-3.13l-.77-2.93h-.21c-.77,1.08-3.29,3.49-8,3.49-5.76,0-8.94-3-9.1-9.4Z"/><path class="cls-7" d="M255.8,424.24h4v12.95H260a11.06,11.06,0,0,1,6.78-2.16c5.86,0,10.64,3.8,10.64,13.36,0,9.09-4.47,15.36-13.72,15.36a17.71,17.71,0,0,1-7.86-1.49ZM273.37,449c0-8.12-3.8-10.43-7.71-10.43a7.46,7.46,0,0,0-5.86,2.77v18.19a12,12,0,0,0,4.47.77C269.72,460.26,273.37,456.51,273.37,449Z"/><path class="cls-7" d="M346.7,443.36V456c0,2.52.77,4.21,2.72,4.21h.72v2.93a3.13,3.13,0,0,1-1.44.31,5,5,0,0,1-5.09-3.39h-.21a10.09,10.09,0,0,1-8.32,3.75c-5.19,0-8.07-3.65-8.07-7.45,0-6.17,6.06-9.2,16-9v-3c0-4.57-2.21-5.91-5.91-5.91a7,7,0,0,0-6.37,3.39l-2.93-2.31a10.91,10.91,0,0,1,9.4-4.57C343.15,434.88,346.7,437.5,346.7,443.36Zm-3.7,7.09c-6.73-.26-12,1.39-12,5.6,0,2.47,1.8,4.47,5,4.47a8.63,8.63,0,0,0,7-3.8Z"/><path class="cls-7" d="M378.2,424.19a2.9,2.9,0,1,1,0,5.81,2.9,2.9,0,0,1,0-5.81Zm-1.75,11.1h4v28h-4Z"/><path class="cls-7" d="M439,461.08a14.54,14.54,0,0,1-8.79,2.52c-8,0-12.28-4.06-12.28-14.49,0-10.12,5.65-14.28,11.87-14.28,6.63,0,10.17,4.32,10.17,10.94a43.49,43.49,0,0,1-.31,4.83H421.93c.36,6.89,3.24,9.51,8.84,9.51a10.61,10.61,0,0,0,6.47-2.11ZM422,447.31h14c.05-.62.05-1.23.05-1.59,0-4.78-2.05-7.45-6.58-7.45C425.84,438.27,422.34,440.58,422,447.31Z"/><path class="cls-7" d="M311.55,434.73c-4.37,0-7.09,2.16-8.17,4.42h-.21c-1-2.52-3.24-4.42-7.4-4.42a8.25,8.25,0,0,0-7.25,3.55h-.1v-3h-4v28h4v-20a6.49,6.49,0,0,1,6.32-5c3.6,0,5.55,2.42,5.55,6.83v18.14h4v-20.3a6.69,6.69,0,0,1,6.42-4.68c3.44,0,5.5,2.21,5.5,6.53v18.45h4V444C320.18,437.86,317.1,434.73,311.55,434.73Z"/><path class="cls-7" d="M402,434.73a10.6,10.6,0,0,0-8,3.49H394v-2.93h-4v28h4v-20a7.54,7.54,0,0,1,7.09-5c3.9,0,6,2.36,6,6.63v18.34h4V444C410.93,437.76,407.59,434.73,402,434.73Z"/><path class="cls-7" d="M356.55,435.63h3.88l.4,5H361c1.88-3.48,4.74-5.71,7.88-5.71a6.88,6.88,0,0,1,3,.57l-.91,4.11a7.76,7.76,0,0,0-2.68-.46c-2.34,0-5.14,1.71-7,6.39v17.81h-4.68Z"/><path class="cls-7" d="M202.3,436.11c0-3.29,2.52-5.65,6.73-5.65a10.79,10.79,0,0,1,7,2.47l2.52-3.19a14.55,14.55,0,0,0-9.3-3c-6.47,0-11.15,4.21-11.15,9.66,0,11.36,17.16,9.51,17.16,17.68,0,3.33-2.61,6-7.48,6h-21.2a20,20,0,0,0-2.34,3.69h23.16c7.71,0,12-4.52,12-10C219.46,442.69,202.3,444.44,202.3,436.11Z"/><path class="cls-7" d="M403.33,305.77H344.16a121.42,121.42,0,0,0-47,9.58h0L208.13,354a2,2,0,0,0,0,3.53l103.26,44.79a52,52,0,0,0,18.15,3.44h27.32a20,20,0,0,0,19.67-16.44h0a31.32,31.32,0,0,1,17.58-22.91h0l5.24-2c12.41-4.58,22.37-11.82,27.22-23.25l.4-1a25.31,25.31,0,0,0-23.63-34.38Z"/><path class="cls-1" d="M403.33,305.77H344.16a121.42,121.42,0,0,0-47,9.58h0L208.13,354a2,2,0,0,0,0,3.53l100.59,43.65,2.67,1.14a52,52,0,0,0,18.15,3.44h27.32a20,20,0,0,0,19.67-16.44h0a31.32,31.32,0,0,1,17.58-22.91h0l5.24-2c12.41-4.58,22.37-11.82,27.22-23.25l.4-1a25.31,25.31,0,0,0-23.63-34.38Z"/><path class="cls-1" d="M403.33,305.77H344.16a121.42,121.42,0,0,0-47,9.58h0L208.13,354a2,2,0,0,0,0,3.53l100.59,43.65,2.67,1.14a52,52,0,0,0,18.15,3.44h27.32a20,20,0,0,0,19.67-16.44h0a31.32,31.32,0,0,1,17.58-22.91h0l5.24-2c12.41-4.58,22.37-11.82,27.22-23.25l.4-1a25.31,25.31,0,0,0-23.63-34.38Z"/><g class="cls-8"><path class="cls-9" d="M464.7,304.74H342.37v0a119.86,119.86,0,1,0,118,88.08h4.28Z"/><path class="cls-10" d="M444.67,325.1V305.77H390.22a86.42,86.42,0,1,0,54.45,19.33Z"/><path class="cls-1" d="M403.33,305.77H344.16a121.42,121.42,0,0,0-47,9.58h0L208.13,354a2,2,0,0,0,0,3.53l100.59,43.65,2.67,1.14a52,52,0,0,0,18.15,3.44h27.32a20,20,0,0,0,19.67-16.44h0a31.32,31.32,0,0,1,17.58-22.91h0l5.24-2c12.41-4.58,22.37-11.82,27.22-23.25l.4-1a25.31,25.31,0,0,0-23.63-34.38Z"/><path class="cls-11" d="M409.18,359.86a28.73,28.73,0,0,1-12.9,3.61h0a62.88,62.88,0,0,0-55.84,42.3h1.69a63.3,63.3,0,1,0,123.06,20.88C465.18,391.69,406.79,361.3,409.18,359.86Z"/><path class="cls-1" d="M403.33,305.77H344.16a121.42,121.42,0,0,0-47,9.58h0L208.13,354a2,2,0,0,0,0,3.53l100.59,43.65,2.67,1.14a52,52,0,0,0,18.15,3.44h27.32a20,20,0,0,0,19.67-16.44h0a31.32,31.32,0,0,1,17.58-22.91h0l5.24-2c12.41-4.58,22.37-11.82,27.22-23.25l.4-1a25.31,25.31,0,0,0-23.63-34.38Z"/></g><path class="cls-12" d="M233.48,655.28l-21.09-9.17a1,1,0,0,0-1.32.52l-9.53,21.92a2,2,0,0,0,1.83,2.8H223.5a6.33,6.33,0,0,0,5.77-3.88L234,656.59A1,1,0,0,0,233.48,655.28Z"/><path class="cls-12" d="M211.07,620.88a1,1,0,0,0,1.32.52l21.09-9.17a1,1,0,0,0,.52-1.32L229.27,600a6.33,6.33,0,0,0-5.77-3.88H203.37a2,2,0,0,0-1.83,2.8Z"/><path class="cls-12" d="M226.09,713.28h4v18.29c0,4.57,2,6.78,6.11,6.78,4,0,6.94-2.31,7-6.73V713.28h4v28h-3.13l-.77-2.93h-.21c-.77,1.08-3.29,3.49-8,3.49-5.76,0-8.94-3-9.1-9.4Z"/><path class="cls-12" d="M255.8,702.23h4v12.95H260a11.06,11.06,0,0,1,6.78-2.16c5.86,0,10.64,3.8,10.64,13.36,0,9.09-4.47,15.36-13.72,15.36a17.71,17.71,0,0,1-7.86-1.49Zm17.57,24.72c0-8.12-3.8-10.43-7.71-10.43a7.46,7.46,0,0,0-5.86,2.77v18.19a12,12,0,0,0,4.47.77C269.72,738.25,273.37,734.5,273.37,726.94Z"/><path class="cls-12" d="M346.7,721.34V734c0,2.52.77,4.21,2.72,4.21h.72v2.93a3.13,3.13,0,0,1-1.44.31,5,5,0,0,1-5.09-3.39h-.21a10.09,10.09,0,0,1-8.32,3.75c-5.19,0-8.07-3.65-8.07-7.45,0-6.17,6.06-9.2,16-9v-3c0-4.57-2.21-5.91-5.91-5.91a7,7,0,0,0-6.37,3.39l-2.93-2.31a10.91,10.91,0,0,1,9.4-4.57C343.15,712.86,346.7,715.49,346.7,721.34Zm-3.7,7.09c-6.73-.26-12,1.39-12,5.6,0,2.47,1.8,4.47,5,4.47a8.63,8.63,0,0,0,7-3.8Z"/><path class="cls-12" d="M378.2,702.18a2.9,2.9,0,1,1,0,5.81,2.9,2.9,0,0,1,0-5.81Zm-1.75,11.1h4v28h-4Z"/><path class="cls-12" d="M439,739.07a14.54,14.54,0,0,1-8.79,2.52c-8,0-12.28-4.06-12.28-14.49,0-10.12,5.65-14.28,11.87-14.28,6.63,0,10.17,4.32,10.17,10.94a43.49,43.49,0,0,1-.31,4.83H421.93c.36,6.89,3.24,9.51,8.84,9.51a10.61,10.61,0,0,0,6.47-2.11ZM422,725.3h14c.05-.62.05-1.23.05-1.59,0-4.78-2.05-7.45-6.58-7.45C425.84,716.26,422.34,718.57,422,725.3Z"/><path class="cls-12" d="M311.55,712.71c-4.37,0-7.09,2.16-8.17,4.42h-.21c-1-2.52-3.24-4.42-7.4-4.42a8.25,8.25,0,0,0-7.25,3.55h-.1v-3h-4v28h4v-20a6.49,6.49,0,0,1,6.32-5c3.6,0,5.55,2.42,5.55,6.83v18.14h4v-20.3a6.69,6.69,0,0,1,6.42-4.68c3.44,0,5.5,2.21,5.5,6.53v18.45h4V722C320.18,715.84,317.1,712.71,311.55,712.71Z"/><path class="cls-12" d="M402,712.71a10.6,10.6,0,0,0-8,3.49H394v-2.93h-4v28h4v-20a7.54,7.54,0,0,1,7.09-5c3.9,0,6,2.36,6,6.63v18.34h4V722C410.93,715.74,407.59,712.71,402,712.71Z"/><path class="cls-12" d="M356.55,713.62h3.88l.4,5H361c1.88-3.48,4.74-5.71,7.88-5.71a6.88,6.88,0,0,1,3,.57l-.91,4.11a7.76,7.76,0,0,0-2.68-.46c-2.34,0-5.14,1.71-7,6.39v17.81h-4.68Z"/><path class="cls-12" d="M202.3,714.1c0-3.29,2.52-5.65,6.73-5.65a10.79,10.79,0,0,1,7,2.47l2.52-3.19a14.55,14.55,0,0,0-9.3-3c-6.47,0-11.15,4.21-11.15,9.66,0,11.36,17.16,9.51,17.16,17.68,0,3.33-2.61,6-7.48,6h-21.2a20,20,0,0,0-2.34,3.69h23.16c7.71,0,12-4.52,12-10C219.46,720.68,202.3,722.42,202.3,714.1Z"/><path class="cls-12" d="M403.33,583.75H344.16a121.42,121.42,0,0,0-47,9.58h0L208.13,632a2,2,0,0,0,0,3.53l103.26,44.79a52,52,0,0,0,18.15,3.44h27.32a20,20,0,0,0,19.67-16.44h0a31.32,31.32,0,0,1,17.58-22.91h0l5.24-2c12.41-4.58,22.37-11.82,27.22-23.25l.4-1a25.31,25.31,0,0,0-23.63-34.38Z"/><path class="cls-1" d="M403.33,583.75H344.16a121.42,121.42,0,0,0-47,9.58h0L208.13,632a2,2,0,0,0,0,3.53l100.59,43.65,2.67,1.14a52,52,0,0,0,18.15,3.44h27.32a20,20,0,0,0,19.67-16.44h0a31.32,31.32,0,0,1,17.58-22.91h0l5.24-2c12.41-4.58,22.37-11.82,27.22-23.25l.4-1a25.31,25.31,0,0,0-23.63-34.38Z"/><path class="cls-1" d="M403.33,583.75H344.16a121.42,121.42,0,0,0-47,9.58h0L208.13,632a2,2,0,0,0,0,3.53l100.59,43.65,2.67,1.14a52,52,0,0,0,18.15,3.44h27.32a20,20,0,0,0,19.67-16.44h0a31.32,31.32,0,0,1,17.58-22.91h0l5.24-2c12.41-4.58,22.37-11.82,27.22-23.25l.4-1a25.31,25.31,0,0,0-23.63-34.38Z"/><g class="cls-13"><path class="cls-14" d="M464.7,582.73H342.37v0a119.86,119.86,0,1,0,118,88.08h4.28Z"/><path class="cls-15" d="M444.67,603.08V583.75H390.22a86.42,86.42,0,1,0,54.45,19.33Z"/><path class="cls-1" d="M403.33,583.75H344.16a121.42,121.42,0,0,0-47,9.58h0L208.13,632a2,2,0,0,0,0,3.53l100.59,43.65,2.67,1.14a52,52,0,0,0,18.15,3.44h27.32a20,20,0,0,0,19.67-16.44h0a31.32,31.32,0,0,1,17.58-22.91h0l5.24-2c12.41-4.58,22.37-11.82,27.22-23.25l.4-1a25.31,25.31,0,0,0-23.63-34.38Z"/><path class="cls-16" d="M409.18,637.84a28.73,28.73,0,0,1-12.9,3.61h0a62.88,62.88,0,0,0-55.84,42.3h1.69a63.3,63.3,0,1,0,123.06,20.88C465.18,669.68,406.79,639.29,409.18,637.84Z"/><path class="cls-1" d="M403.33,583.75H344.16a121.42,121.42,0,0,0-47,9.58h0L208.13,632a2,2,0,0,0,0,3.53l100.59,43.65,2.67,1.14a52,52,0,0,0,18.15,3.44h27.32a20,20,0,0,0,19.67-16.44h0a31.32,31.32,0,0,1,17.58-22.91h0l5.24-2c12.41-4.58,22.37-11.82,27.22-23.25l.4-1a25.31,25.31,0,0,0-23.63-34.38Z"/></g></svg>