<?xml version="1.0" encoding="utf-8"?>
<!-- Generator: Adobe Illustrator 23.0.0, SVG Export Plug-In . SVG Version: 6.00 Build 0)  -->
<svg version="1.1" id="图层_1" xmlns="http://www.w3.org/2000/svg" xmlns:xlink="http://www.w3.org/1999/xlink" x="0px" y="0px"
	 viewBox="0 0 292.4 239.7" style="enable-background:new 0 0 292.4 239.7;" xml:space="preserve">
<style type="text/css">
	.st0{fill:#2E51BF;}
	.st1{fill:#3CDDC9;}
	.st2{fill:none;}
	.st3{clip-path:url(#SVGID_2_);}
	.st4{fill:#3090D8;}
	.st5{fill:#3FBFDE;}
</style>
<title>LOGO 3</title>
<path class="st0" d="M68.1,113.8L47,104.6c-0.5-0.2-1.1,0-1.3,0.5c0,0,0,0,0,0l0,0L36.2,127c-0.4,1,0,2.2,1,2.6
	c0.3,0.1,0.5,0.2,0.8,0.2h20.1c2.5,0,4.8-1.6,5.8-3.9l4.7-10.9C68.9,114.6,68.6,114,68.1,113.8C68.1,113.8,68.1,113.8,68.1,113.8
	L68.1,113.8z"/>
<path class="st0" d="M45.7,79.4c0.2,0.5,0.8,0.7,1.3,0.5l0,0l21.1-9.2c0.5-0.2,0.7-0.8,0.5-1.3l0,0l-4.7-10.9
	c-1-2.3-3.2-3.9-5.8-3.9H38c-1.1,0-2,0.9-2,2c0,0.3,0.1,0.5,0.2,0.8L45.7,79.4z"/>
<path class="st1" d="M60.7,171.8h4V190c0,4.6,2,6.8,6.1,6.8s6.9-2.3,7-6.7v-18.3h4v28h-3l-0.8-2.9h-0.2c-0.8,1.1-3.3,3.5-8,3.5
	c-5.8,0-8.9-3-9.1-9.4L60.7,171.8z"/>
<path class="st1" d="M90.4,160.7h4v13h0.2c2-1.5,4.3-2.2,6.8-2.2c5.9,0,10.6,3.8,10.6,13.4c0,9.1-4.5,15.4-13.7,15.4
	c-2.7,0.1-5.4-0.4-7.9-1.5L90.4,160.7z M108,185.5c0-8.1-3.8-10.4-7.7-10.4c-2.3,0-4.4,1-5.9,2.8V196c1.4,0.5,2.9,0.8,4.5,0.8
	C104.4,196.7,108,193,108,185.5z"/>
<path class="st1" d="M181.3,179.8v12.6c0,2.5,0.8,4.2,2.7,4.2h0.7v2.9c-0.4,0.2-0.9,0.3-1.4,0.3c-2.3,0.2-4.4-1.2-5.1-3.4H178
	c-2,2.5-5.1,3.9-8.3,3.8c-5.2,0-8.1-3.6-8.1-7.5c0-6.2,6.1-9.2,16-9v-3c0-4.6-2.2-5.9-5.9-5.9c-2.6-0.1-5,1.2-6.4,3.4l-2.9-2.3
	c2.2-3,5.7-4.7,9.4-4.6C177.8,171.3,181.3,174,181.3,179.8z M177.6,186.9c-6.7-0.3-12,1.4-12,5.6c0,2.5,1.8,4.5,5,4.5
	c2.8,0,5.4-1.5,7-3.8V186.9z"/>
<path class="st1" d="M212.8,160.7c1.6,0,2.9,1.3,2.9,2.9s-1.3,2.9-2.9,2.9s-2.9-1.3-2.9-2.9C209.9,162,211.2,160.7,212.8,160.7
	C212.8,160.7,212.8,160.7,212.8,160.7z M211.1,171.8h4v28h-4V171.8z"/>
<path class="st1" d="M273.7,197.6c-2.6,1.8-5.7,2.6-8.8,2.5c-8,0-12.3-4.1-12.3-14.5c0-10.1,5.6-14.3,11.9-14.3
	c6.6,0,10.2,4.3,10.2,10.9c0,1.6-0.1,3.2-0.3,4.8h-17.8c0.4,6.9,3.2,9.5,8.8,9.5c2.3,0,4.6-0.7,6.5-2.1L273.7,197.6z M256.6,183.8
	h14c0-0.6,0-1.2,0-1.6c0-4.8-2-7.5-6.6-7.5C260.5,174.7,257,177.1,256.6,183.8L256.6,183.8z"/>
<path class="st1" d="M146.2,171.2c-4.4,0-7.1,2.2-8.2,4.4h-0.2c-1-2.5-3.2-4.4-7.4-4.4c-2.9-0.2-5.6,1.2-7.3,3.5H123v-3h-4v28h4v-20
	c0.7-2.9,3.3-5,6.3-5c3.6,0,5.5,2.4,5.5,6.8v18.1h4v-20.3c0.9-2.8,3.5-4.7,6.4-4.7c3.4,0,5.5,2.2,5.5,6.5v18.5h4v-19.2
	C154.8,174.3,151.8,171.2,146.2,171.2z"/>
<path class="st1" d="M236.6,171.2c-3,0-6,1.2-8,3.5l0,0v-2.9h-4v28h4v-20c1.1-3,3.9-5,7.1-5c3.9,0,6,2.4,6,6.6v18.3h4v-19.3
	C245.6,174.2,242.2,171.2,236.6,171.2z"/>
<path class="st1" d="M191.2,172.1h3.9l0.4,5h0.2c1.9-3.5,4.7-5.7,7.9-5.7c1,0,2.1,0.2,3,0.6l-0.9,4.1c-0.9-0.3-1.8-0.5-2.7-0.5
	c-2.3,0-5.1,1.7-7,6.4v17.8h-4.7V172.1z"/>
<path class="st1" d="M36.9,172.6c0-3.3,2.5-5.6,6.7-5.6c2.6,0,5,0.8,7,2.5l2.5-3.2c-2.7-2-5.9-3.1-9.3-3c-6.5,0-11.1,4.2-11.1,9.7
	c0,11.4,17.2,9.5,17.2,17.7c0,3.3-2.6,6-7.5,6H21.2c-0.9,1.1-1.7,2.4-2.3,3.7H42c7.7,0,12-4.5,12-10
	C54.1,179.2,36.9,180.9,36.9,172.6z"/>
<path class="st0" d="M238,42.2h-59.2c-16.1,0-32.1,3.3-47,9.6l0,0l-89,38.7c-1,0.5-1.3,1.7-0.8,2.7c0,0,0,0,0,0
	c0.2,0.3,0.5,0.6,0.8,0.8L146,138.8c5.8,2.2,11.9,3.4,18.1,3.4h27.3c9.7,0,17.9-6.9,19.7-16.4l0,0c1.8-10.1,8.4-18.6,17.6-22.9l0,0
	l5.2-2c12.4-4.6,22.4-11.8,27.2-23.3l0.4-1c5-13-1.5-27.7-14.6-32.7C244.2,42.8,241.1,42.2,238,42.2L238,42.2z"/>
<path class="st2" d="M238,42.2h-59.2c-16.1,0-32.1,3.3-47,9.6l0,0l-89,38.7c-1,0.5-1.3,1.7-0.8,2.7c0,0,0,0,0,0
	c0.2,0.3,0.5,0.6,0.8,0.8l100.6,43.6l2.7,1.1c5.8,2.2,11.9,3.4,18.1,3.4h27.3c9.7,0,17.9-6.9,19.7-16.4l0,0
	c1.8-10.1,8.4-18.6,17.6-22.9l0,0l5.2-2c12.4-4.6,22.4-11.8,27.2-23.3l0.4-1c5-13-1.5-27.7-14.6-32.7
	C244.2,42.8,241.1,42.2,238,42.2L238,42.2z"/>
<path class="st2" d="M238,42.2h-59.2c-16.1,0-32.1,3.3-47,9.6l0,0l-89,38.7c-1,0.5-1.3,1.7-0.8,2.7c0,0,0,0,0,0
	c0.2,0.3,0.5,0.6,0.8,0.8l100.6,43.6l2.7,1.1c5.8,2.2,11.9,3.4,18.1,3.4h27.3c9.7,0,17.9-6.9,19.7-16.4l0,0
	c1.8-10.1,8.4-18.6,17.6-22.9l0,0l5.2-2c12.4-4.6,22.4-11.8,27.2-23.3l0.4-1c5-13-1.5-27.7-14.6-32.7
	C244.2,42.8,241.1,42.2,238,42.2L238,42.2z"/>
<g>
	<defs>
		<path id="SVGID_1_" d="M238,42.2h-59.2c-16.1,0-32.1,3.3-47,9.6l0,0l-89,38.7c-1,0.5-1.3,1.7-0.8,2.7c0,0,0,0,0,0
			c0.2,0.3,0.5,0.6,0.8,0.8L146,138.8c5.8,2.2,11.9,3.4,18.1,3.4h27.3c9.7,0,17.9-6.9,19.7-16.4l0,0c1.8-10.1,8.4-18.6,17.6-22.9
			l0,0l5.2-2c12.4-4.6,22.4-11.8,27.2-23.3l0.4-1c5-13-1.5-27.7-14.6-32.7C244.2,42.8,241.1,42.2,238,42.2L238,42.2z"/>
	</defs>
	<clipPath id="SVGID_2_">
		<use xlink:href="#SVGID_1_"  style="overflow:visible;"/>
	</clipPath>
	<g class="st3">
		<path class="st4" d="M299.3,41.2H177C110.8,42.5,58.2,97.3,59.6,163.5c1.3,66.2,56.1,118.8,122.3,117.4
			c66.2-1.3,118.8-56.1,117.4-122.3c-0.2-9.9-1.6-19.8-4.3-29.4h4.3L299.3,41.2z"/>
		<path class="st5" d="M279.3,61.6V42.2h-54.5c-47.7,0-86.4,38.7-86.5,86.4c0,47.7,38.7,86.4,86.4,86.5s86.4-38.7,86.5-86.4
			C311.3,102.6,299.5,78,279.3,61.6z"/>
		<path class="st2" d="M238,42.2h-59.2c-16.1,0-32.1,3.3-47,9.6l0,0l-89,38.7c-1,0.5-1.3,1.7-0.8,2.7c0,0,0,0,0,0
			c0.2,0.3,0.5,0.6,0.8,0.8l100.6,43.6l2.7,1.1c5.8,2.2,11.9,3.4,18.1,3.4h27.3c9.7,0,17.9-6.9,19.7-16.4l0,0
			c1.8-10.1,8.4-18.6,17.6-22.9l0,0l5.2-2c12.4-4.6,22.4-11.8,27.2-23.3l0.4-1c5-13-1.5-27.7-14.6-32.7
			C244.2,42.8,241.1,42.2,238,42.2L238,42.2z"/>
		<path class="st1" d="M243.8,96.3c-4,2.2-8.4,3.4-12.9,3.6l0,0c-25.5,1.5-47.5,18.2-55.8,42.3h1.7c-11.6,33,5.7,69.1,38.7,80.7
			s69.1-5.7,80.7-38.7c2.4-6.8,3.6-14,3.6-21.2C299.8,128.2,241.4,97.8,243.8,96.3z"/>
		<path class="st2" d="M238,42.2h-59.2c-16.1,0-32.1,3.3-47,9.6l0,0l-89,38.7c-1,0.5-1.3,1.7-0.8,2.7c0,0,0,0,0,0
			c0.2,0.3,0.5,0.6,0.8,0.8l100.6,43.6l2.7,1.1c5.8,2.2,11.9,3.4,18.1,3.4h27.3c9.7,0,17.9-6.9,19.7-16.4l0,0
			c1.8-10.1,8.4-18.6,17.6-22.9l0,0l5.2-2c12.4-4.6,22.4-11.8,27.2-23.3l0.4-1c5-13-1.5-27.7-14.6-32.7
			C244.2,42.8,241.1,42.2,238,42.2L238,42.2z"/>
	</g>
</g>
</svg>
